name analog
datacolumns 19
datarows 59
range 0.3605 0.3895
endheader
time	ground_force_vx	ground_force_vy	ground_force_vz	ground_force_px	ground_force_py	ground_force_pz	l_ground_force_vx	l_ground_force_vy	l_ground_force_vz	l_ground_force_px	l_ground_force_py	l_ground_force_pz	ground_torque_x	ground_torque_y	ground_torque_z	l_ground_torque_x	l_ground_torque_y	l_ground_torque_z
0.3605	-0.0	-0.0	-0.0	-0.0	-0.0	-0.0	14.269680976867676	9.218244552612305	-644.3143310546875	-0.0	-0.0	-0.0	-0.0	-0.0	-0.0	177163.0625	-26103.994140625	-1389.35888671875
0.361	-0.0	-0.0	-0.0	-0.0	-0.0	-0.0	14.847557067871094	8.269526481628418	-643.5640258789062	-0.0	-0.0	-0.0	-0.0	-0.0	-0.0	177767.515625	-26552.537109375	-1340.899169921875
0.3615	-0.0	-0.0	-0.0	-0.0	-0.0	-0.0	14.128155708312988	7.405584335327148	-642.6211547851562	-0.0	-0.0	-0.0	-0.0	-0.0	-0.0	177404.03125	-26855.548828125	-1404.20703125
0.362	-0.0	-0.0	-0.0	-0.0	-0.0	-0.0	13.40921115875244	6.931026935577393	-641.70361328125	-0.0	-0.0	-0.0	-0.0	-0.0	-0.0	176759.375	-27153.06640625	-1331.3743896484375
0.3625	-0.0	-0.0	-0.0	-0.0	-0.0	-0.0	13.110793113708496	7.586503982543945	-638.0284423828125	-0.0	-0.0	-0.0	-0.0	-0.0	-0.0	176463.21875	-27363.271484375	-1167.473388671875
0.363	-0.0	-0.0	-0.0	-0.0	-0.0	-0.0	14.086992263793944	8.10213565826416	-632.60546875	-0.0	-0.0	-0.0	-0.0	-0.0	-0.0	175475.515625	-27411.6015625	-799.7449340820312
0.3635	-0.0	-0.0	-0.0	-0.0	-0.0	-0.0	14.604783058166504	7.996178150177002	-628.472900390625	-0.0	-0.0	-0.0	-0.0	-0.0	-0.0	174578.375	-27733.005859375	-456.3351745605469
0.364	-0.0	-0.0	-0.0	-0.0	-0.0	-0.0	14.95969009399414	8.020176887512207	-626.1227416992188	-0.0	-0.0	-0.0	-0.0	-0.0	-0.0	173668.84375	-27793.373046875	-57.49666595458984
0.3645	-0.0	-0.0	-0.0	-0.0	-0.0	-0.0	15.444049835205078	7.820074558258057	-625.0758056640625	-0.0	-0.0	-0.0	-0.0	-0.0	-0.0	173289.328125	-27829.685546875	306.81060791015625
0.365	-0.0	-0.0	-0.0	-0.0	-0.0	-0.0	15.862948417663574	8.069416046142578	-622.5693969726562	-0.0	-0.0	-0.0	-0.0	-0.0	-0.0	173135.5625	-28193.49609375	587.74365234375
0.3655	-0.0	-0.0	-0.0	-0.0	-0.0	-0.0	16.080923080444336	8.334317207336426	-623.2044067382812	-0.0	-0.0	-0.0	-0.0	-0.0	-0.0	173079.359375	-28276.517578125	806.3671264648438
0.366	-0.0	-0.0	-0.0	-0.0	-0.0	-0.0	16.509193420410156	8.800166130065918	-621.7782592773438	-0.0	-0.0	-0.0	-0.0	-0.0	-0.0	173076.5	-28422.5	1046.6317138671875
0.3665	-0.0	-0.0	-0.0	-0.0	-0.0	-0.0	16.57189178466797	9.200444221496582	-623.7406616210938	-0.0	-0.0	-0.0	-0.0	-0.0	-0.0	173253.75	-28762.6328125	1349.0047607421875
0.367	-0.0	-0.0	-0.0	-0.0	-0.0	-0.0	16.96845245361328	9.722668647766112	-624.2830810546875	-0.0	-0.0	-0.0	-0.0	-0.0	-0.0	173681.90625	-28703.5234375	1565.324951171875
0.3675	-0.0	-0.0	-0.0	-0.0	-0.0	-0.0	16.727323532104492	9.89202880859375	-626.3780517578125	-0.0	-0.0	-0.0	-0.0	-0.0	-0.0	173655.65625	-28616.375	1643.5625
0.368	-0.0	-0.0	-0.0	-0.0	-0.0	-0.0	14.75096607208252	9.89202880859375	-626.5745849609375	-0.0	-0.0	-0.0	-0.0	-0.0	-0.0	173980.765625	-28127.677734375	1269.54931640625
0.3685	-0.0	-0.0	-0.0	-0.0	-0.0	-0.0	12.596931457519531	9.5203857421875	-627.3529052734375	-0.0	-0.0	-0.0	-0.0	-0.0	-0.0	174596.140625	-27823.005859375	731.7130126953125
0.369	-0.0	-0.0	-0.0	-0.0	-0.0	-0.0	11.05068016052246	9.627063751220703	-629.4209594726562	-0.0	-0.0	-0.0	-0.0	-0.0	-0.0	174846.75	-27579.748046875	381.192138671875
0.3695	-0.0	-0.0	-0.0	-0.0	-0.0	-0.0	10.854372024536133	9.740673065185549	-630.56787109375	-0.0	-0.0	-0.0	-0.0	-0.0	-0.0	174902.4375	-27216.37109375	374.6554565429688
0.37	-0.0	-0.0	-0.0	-0.0	-0.0	-0.0	10.61974048614502	9.77226734161377	-632.7633056640625	-0.0	-0.0	-0.0	-0.0	-0.0	-0.0	175685.34375	-27216.13671875	336.3393859863281
0.3705	-0.0	-0.0	-0.0	-0.0	-0.0	-0.0	10.410676956176758	9.293537139892578	-633.733154296875	-0.0	-0.0	-0.0	-0.0	-0.0	-0.0	175697.953125	-27107.19921875	378.2222595214844
0.371	-0.0	-0.0	-0.0	-0.0	-0.0	-0.0	10.379161834716797	8.50459098815918	-635.3322143554688	-0.0	-0.0	-0.0	-0.0	-0.0	-0.0	175936.53125	-26845.7109375	552.1295166015625
0.3715	-0.0	-0.0	-0.0	-0.0	-0.0	-0.0	10.196351051330566	7.709850311279297	-636.3800048828125	-0.0	-0.0	-0.0	-0.0	-0.0	-0.0	176187.390625	-26499.146484375	532.6739501953125
0.372	-0.0	-0.0	-0.0	-0.0	-0.0	-0.0	9.815594673156738	7.777482509613037	-638.5982666015625	-0.0	-0.0	-0.0	-0.0	-0.0	-0.0	176495.71875	-26440.94140625	453.9169616699219
0.3725	-0.0	-0.0	-0.0	-0.0	-0.0	-0.0	9.40834903717041	7.034633159637451	-640.4473266601562	-0.0	-0.0	-0.0	-0.0	-0.0	-0.0	176724.6875	-26445.830078125	531.9848022460938
0.373	-0.0	-0.0	-0.0	-0.0	-0.0	-0.0	9.412890434265137	6.3018646240234375	-640.532958984375	-0.0	-0.0	-0.0	-0.0	-0.0	-0.0	177075.859375	-26404.63671875	786.7877197265625
0.3735	-0.0	-0.0	-0.0	-0.0	-0.0	-0.0	9.674036026000977	5.127198219299316	-641.7227172851562	-0.0	-0.0	-0.0	-0.0	-0.0	-0.0	176834.796875	-26235.810546875	720.1195068359375
0.374	-0.0	-0.0	-0.0	-0.0	-0.0	-0.0	9.07518482208252	4.17768669128418	-640.7102661132812	-0.0	-0.0	-0.0	-0.0	-0.0	-0.0	176665.453125	-26036.49609375	943.4990844726562
0.3745	-0.0	-0.0	-0.0	-0.0	-0.0	-0.0	8.60494613647461	2.70715880393982	-640.2222900390625	-0.0	-0.0	-0.0	-0.0	-0.0	-0.0	176072.5	-25486.326171875	846.3662719726562
0.375	-0.0	-0.0	-0.0	-0.0	-0.0	-0.0	7.416902542114258	1.3248252868652344	-641.4976196289062	-0.0	-0.0	-0.0	-0.0	-0.0	-0.0	175856.578125	-25465.275390625	709.8477783203125
0.3755	-0.0	-0.0	-0.0	-0.0	-0.0	-0.0	6.506688594818115	0.2379758208990097	-641.0423583984375	-0.0	-0.0	-0.0	-0.0	-0.0	-0.0	175677.953125	-25191.931640625	617.333251953125
0.376	-0.0	-0.0	-0.0	-0.0	-0.0	-0.0	6.148280620574951	-0.8491289615631104	-641.2705078125	-0.0	-0.0	-0.0	-0.0	-0.0	-0.0	175666.8125	-25247.283203125	510.7870178222656
0.3765	-0.0	-0.0	-0.0	-0.0	-0.0	-0.0	6.506553649902344	-1.7631603479385376	-642.102783203125	-0.0	-0.0	-0.0	-0.0	-0.0	-0.0	175456.421875	-24972.357421875	793.7548828125
0.377	-0.0	-0.0	-0.0	-0.0	-0.0	-0.0	7.06016206741333	-2.652693033218384	-640.5848999023438	-0.0	-0.0	-0.0	-0.0	-0.0	-0.0	174974.078125	-24731.75390625	1033.3822021484375
0.3775	-0.0	-0.0	-0.0	-0.0	-0.0	-0.0	7.4211812019348145	-3.712362289428711	-639.874755859375	-0.0	-0.0	-0.0	-0.0	-0.0	-0.0	174192.46875	-24499.345703125	1121.3612060546875
0.378	-0.0	-0.0	-0.0	-0.0	-0.0	-0.0	6.673227310180664	-5.329615116119385	-638.358642578125	-0.0	-0.0	-0.0	-0.0	-0.0	-0.0	173494.921875	-24173.810546875	1200.1353759765625
0.3785	-0.0	-0.0	-0.0	-0.0	-0.0	-0.0	5.5304460525512695	-6.57086992263794	-635.4655151367188	-0.0	-0.0	-0.0	-0.0	-0.0	-0.0	172569.34375	-23521.25	1108.372314453125
0.379	-0.0	-0.0	-0.0	-0.0	-0.0	-0.0	5.023970127105713	-7.862851142883301	-633.9400024414062	-0.0	-0.0	-0.0	-0.0	-0.0	-0.0	171715.46875	-23140.80859375	1029.6807861328125
0.3795	-0.0	-0.0	-0.0	-0.0	-0.0	-0.0	5.350884914398193	-8.360456466674805	-630.4488525390625	-0.0	-0.0	-0.0	-0.0	-0.0	-0.0	170991.859375	-22732.2578125	1158.5794677734375
0.38	-0.0	-0.0	-0.0	-0.0	-0.0	-0.0	5.913449287414551	-8.98237419128418	-629.401611328125	-0.0	-0.0	-0.0	-0.0	-0.0	-0.0	170342.984375	-22353.857421875	1455.462158203125
0.3805	-0.0	-0.0	-0.0	-0.0	-0.0	-0.0	5.528574466705322	-9.8636474609375	-627.3132934570312	-0.0	-0.0	-0.0	-0.0	-0.0	-0.0	169973.0625	-21581.181640625	1484.0947265625
0.381	-0.0	-0.0	-0.0	-0.0	-0.0	-0.0	4.286777973175049	-9.716744422912598	-625.2177734375	-0.0	-0.0	-0.0	-0.0	-0.0	-0.0	169191.65625	-20738.572265625	1058.446044921875
0.3815	-0.0	-0.0	-0.0	-0.0	-0.0	-0.0	3.727026224136353	-9.479082107543944	-623.2263793945312	-0.0	-0.0	-0.0	-0.0	-0.0	-0.0	168518.953125	-20267.107421875	959.5111083984376
0.382	-0.0	-0.0	-0.0	-0.0	-0.0	-0.0	3.371951103210449	-8.832168579101562	-619.39501953125	-0.0	-0.0	-0.0	-0.0	-0.0	-0.0	168239.984375	-19473.3515625	731.1333618164062
0.3825	-0.0	-0.0	-0.0	-0.0	-0.0	-0.0	3.0743348598480225	-7.918543338775635	-618.6966552734375	-0.0	-0.0	-0.0	-0.0	-0.0	-0.0	168319.5625	-18850.138671875	415.47174072265625
0.383	-0.0	-0.0	-0.0	-0.0	-0.0	-0.0	3.164916515350342	-7.301080226898193	-619.9739990234375	-0.0	-0.0	-0.0	-0.0	-0.0	-0.0	168638.125	-18457.15234375	563.8330078125
0.3835	-0.0	-0.0	-0.0	-0.0	-0.0	-0.0	3.311664342880249	-7.360548496246338	-618.1151733398438	-0.0	-0.0	-0.0	-0.0	-0.0	-0.0	169146.1875	-18023.048828125	692.680908203125
0.384	-0.0	-0.0	-0.0	-0.0	-0.0	-0.0	3.6963586807250977	-8.037386894226074	-618.8131713867188	-0.0	-0.0	-0.0	-0.0	-0.0	-0.0	169360.234375	-17361.615234375	574.1048583984375
0.3845	-0.0	-0.0	-0.0	-0.0	-0.0	-0.0	3.045898914337158	-8.685029983520508	-618.6962890625	-0.0	-0.0	-0.0	-0.0	-0.0	-0.0	169770.078125	-16738.322265625	355.96124267578125
0.385	-0.0	-0.0	-0.0	-0.0	-0.0	-0.0	1.5382018089294434	-8.59686279296875	-618.6979370117188	-0.0	-0.0	-0.0	-0.0	-0.0	-0.0	170227.234375	-16104.40625	-188.8152313232422
0.3855	-0.0	-0.0	-0.0	-0.0	-0.0	-0.0	0.2960495948791504	-8.06654167175293	-621.8411254882812	-0.0	-0.0	-0.0	-0.0	-0.0	-0.0	171608.28125	-15570.73828125	-762.9254150390625
0.386	-0.0	-0.0	-0.0	-0.0	-0.0	-0.0	-0.2059888243675232	-6.860649585723877	-623.235595703125	-0.0	-0.0	-0.0	-0.0	-0.0	-0.0	173037.890625	-15094.212890625	-1247.5272216796875
0.3865	-0.0	-0.0	-0.0	-0.0	-0.0	-0.0	-0.2368838340044021	-5.063456535339356	-628.5880126953125	-0.0	-0.0	-0.0	-0.0	-0.0	-0.0	174857.09375	-14939.224609375	-1435.10888671875
0.387	-0.0	-0.0	-0.0	-0.0	-0.0	-0.0	0.4120594263076782	-3.0924084186553955	-631.495849609375	-0.0	-0.0	-0.0	-0.0	-0.0	-0.0	176776.453125	-14921.6982421875	-1592.59130859375
0.3875	-0.0	-0.0	-0.0	-0.0	-0.0	-0.0	1.327889084815979	-1.6201510429382324	-636.3888549804688	-0.0	-0.0	-0.0	-0.0	-0.0	-0.0	178455.328125	-14890.619140625	-1502.13623046875
0.388	-0.0	-0.0	-0.0	-0.0	-0.0	-0.0	2.456437587738037	0.2376211583614349	-641.1566772460938	-0.0	-0.0	-0.0	-0.0	-0.0	-0.0	180822.15625	-14825.0576171875	-1481.394775390625
0.3885	-0.0	-0.0	-0.0	-0.0	-0.0	-0.0	2.632344007492065	1.4708517789840698	-646.7637939453125	-0.0	-0.0	-0.0	-0.0	-0.0	-0.0	183022.578125	-14914.6103515625	-1539.691650390625
0.389	-0.0	-0.0	-0.0	-0.0	-0.0	-0.0	2.599510908126831	2.851078987121582	-649.6495361328125	-0.0	-0.0	-0.0	-0.0	-0.0	-0.0	184708.8125	-14582.0234375	-1757.940185546875
0.3895	-0.0	-0.0	-0.0	-0.0	-0.0	-0.0	2.1867218017578125	4.208529472351074	-653.2713623046875	-0.0	-0.0	-0.0	-0.0	-0.0	-0.0	186091.625	-14334.740234375	-1706.7669677734375
